<?xml version="1.0" encoding="UTF-8" standalone="no"?>
<!DOCTYPE svg PUBLIC "-//W3C//DTD SVG 1.1//EN" "http://www.w3.org/Graphics/SVG/1.1/DTD/svg11.dtd">
<svg version="1.1" xmlns="http://www.w3.org/2000/svg" xmlns:xlink="http://www.w3.org/1999/xlink" preserveAspectRatio="xMidYMid meet" viewBox="0 0 640 640" width="48" height="48"><defs><path d="M359.55 111.09L364.12 111.55L368.64 112.19L373.1 113.01L377.49 114.01L381.82 115.17L386.08 116.49L390.27 117.98L394.38 119.63L398.4 121.42L402.35 123.37L406.2 125.47L409.97 127.71L413.64 130.08L417.2 132.6L420.67 135.24L424.03 138.02L427.28 140.92L430.42 143.93L433.44 147.07L436.34 150.32L439.11 153.68L441.76 157.15L444.27 160.72L446.65 164.39L448.89 168.15L450.98 172.01L452.93 175.95L454.73 179.98L456.37 184.09L457.86 188.27L459.19 192.53L460.35 196.86L461.34 201.26L462.16 205.71L462.8 210.23L463.27 214.8L463.55 219.42L463.59 221.41L463.64 221.41L463.64 369.17L406.93 369.17L406.93 224.09L293.43 224.09L293.43 368.44L342.01 368.44L265.17 507.08L188.34 368.44L237.05 368.44L237.05 224.09L236.87 224.09L236.97 219.42L237.25 214.8L237.71 210.23L238.36 205.71L239.18 201.26L240.17 196.86L241.33 192.53L242.66 188.27L244.14 184.09L245.79 179.98L247.59 175.95L249.54 172.01L251.63 168.15L253.87 164.39L256.25 160.72L258.76 157.15L261.41 153.68L264.18 150.32L267.08 147.07L270.1 143.93L273.23 140.92L276.49 138.02L279.85 135.24L283.31 132.6L286.88 130.08L290.55 127.71L294.31 125.47L298.17 123.37L302.11 121.42L306.14 119.63L310.25 117.98L314.44 116.49L318.7 115.17L323.02 114.01L327.42 113.01L331.88 112.19L336.39 111.55L340.96 111.09L345.59 110.8L350.26 110.71L354.93 110.8L359.55 111.09ZM345.61 167.59L343.33 167.82L341.07 168.14L338.84 168.55L336.64 169.05L334.48 169.63L332.35 170.29L330.25 171.04L328.2 171.86L326.19 172.76L324.21 173.73L322.29 174.78L320.4 175.9L318.57 177.09L316.79 178.35L315.05 179.67L313.37 181.06L311.75 182.51L310.18 184.01L308.67 185.58L307.22 187.21L305.83 188.89L304.51 190.62L303.25 192.41L302.06 194.24L300.95 196.12L299.9 198.05L298.92 200.02L298.02 202.04L297.2 204.09L296.46 206.18L295.79 208.31L295.21 210.48L294.72 212.68L294.31 214.9L293.99 217.16L293.75 219.45L293.61 221.76L293.57 224.09L406.93 224.09L406.93 222.98L406.9 221.76L406.76 219.45L406.53 217.16L406.21 214.9L405.8 212.68L405.3 210.48L404.72 208.31L404.06 206.18L403.32 204.09L402.49 202.04L401.59 200.02L400.62 198.05L399.57 196.12L398.45 194.24L397.26 192.41L396.01 190.62L394.68 188.89L393.3 187.21L391.85 185.58L390.34 184.01L388.77 182.51L387.15 181.06L385.47 179.67L383.73 178.35L381.95 177.09L380.11 175.9L378.23 174.78L376.3 173.73L374.33 172.76L372.32 171.86L370.26 171.04L368.17 170.29L366.04 169.63L363.88 169.05L361.68 168.55L359.45 168.14L357.19 167.82L354.91 167.59L352.59 167.45L350.26 167.4L347.92 167.45L345.61 167.59Z" id="d1Mt3kCVZE"></path></defs><g><g><g><use xlink:href="#d1Mt3kCVZE" opacity="1" fill="#6c6c6c" fill-opacity="1"></use><use xlink:href="#d1Mt3kCVZE" opacity="1" fill="#6c6c6c" fill-opacity="1"></use></g></g></g></svg>