<?xml version="1.0" encoding="UTF-8" standalone="no"?>
<svg
  xmlns="http://www.w3.org/2000/svg"
  xmlns:xlink="http://www.w3.org/1999/xlink"
  version="1.1"
  width="907.000000pt"
  height="2560.000000pt"
  viewBox="0 0 907.000000 2560.000000">
  <defs
    id="defs20">
    <rect
       x="142.22222"
       y="199.36508"
       width="817.77777"
       height="599.36507"
       id="rect28" />
  </defs>
  <metadata
    id="metadata10">
    Created by potrace 1.15, written by Peter Selinger 2001-2017. Editat per Òscar Sánchez :-)
  </metadata>
  <g stroke-width="param(outline-width) 1" fill="param(fill) #FFF">
  <path
    transform="translate(0.000000,1280.000000) scale(0.100000,-0.100000)"
    d="M4245 12794 c-1839 -119 -3296 -1064 -3913 -2539 -151 -360 -251 -750 -303 -1186 -30 -244 -32 -686 -5 -914 98 -835 397 -1736 942 -2835 604 -1220 1442 -2539 2540 -4000 319 -425 1011 -1307 1026 -1309 14 -2 676 838 1021 1297 2406 3198 3633 5834 3508 7537 -80 1091 -470 1971 -1182 2672 -717 706 -1688 1138 -2829 1259 -138 14 -674 26 -805 18z"
    id="path12" />
  <!-- <text 
    fill="white" 
    transform="translate(-92.119047,-16.507936)" 
    x="158.29883" 
    y="655.53039" 
    content-value="param(number) #"
    style="font-style:normal;text-align:center;font-weight:normal;font-size:500px;line-height:1.25;font-family:sans-serif;white-space:pre;shape-inside:url(#rect28);fill:#ffffff;fill-opacity:1;stroke:none;">#</text> -->
  </g>
  <script type="text/ecmascript" xlink:href="https://www.w3.org/TR/2009/WD-SVGParamPrimer-20090616/param.js" /> 
</svg>